PathFileType	4	(X/Y/Z)	T1_P1_NoVision_Movement_0_0-662.trc
DataRate	CameraRate	NumFrames	NumMarkers	Units	OrigDataRate	OrigDataStartFrame	OrigNumFrames
60	60	5	27	m	60	413	662
Frame#	Time	RHip			RKnee			RAnkle			RBigToe			RSmallToe			RHeel			LHip			LKnee			LAnkle			LBigToe			LSmallToe			LHeel			Neck			Head			Nose			RShoulder			RElbow			RWrist			RThumb			RIndex			RPinky			LShoulder			LElbow			LWrist			LThumb			LIndex			LPinky		
		X1	Y1	Z1	X2	Y2	Z2	X3	Y3	Z3	X4	Y4	Z4	X5	Y5	Z5	X6	Y6	Z6	X7	Y7	Z7	X8	Y8	Z8	X9	Y9	Z9	X10	Y10	Z10	X11	Y11	Z11	X12	Y12	Z12	X13	Y13	Z13	X14	Y14	Z14	X15	Y15	Z15	X16	Y16	Z16	X17	Y17	Z17	X18	Y18	Z18	X19	Y19	Z19	X20	Y20	Z20	X21	Y21	Z21	X22	Y22	Z22	X23	Y23	Z23	X24	Y24	Z24	X25	Y25	Z25	X26	Y26	Z26	X27	Y27	Z27
414	6.9	-83.45862072090436	3889.4023785648815	-589.035798141208	269.1463016155351	3999.185425444147	-530.3362016849345	624.672857569578	4149.057149391365	-523.7620469818547	695.7906026469341	4092.002677569013	-477.17796335314	706.1376924801958	4118.246539546656	-561.2551589012751	655.7630223381901	4194.096006711695	-531.5572789289333	-109.93251492849451	3910.625007123878	-348.5837728820908	234.1780183588864	4012.733875283674	-359.1972877455629	577.3935151654956	4194.508190184957	-382.83566781340306	680.5296195096882	4189.195235040604	-351.95565641475974	644.1100789894653	4251.364983715625	-335.29424181662034	605.1214227571082	4235.258710200286	-410.4675736244126	-694.4300265370547	3728.29148395247	-476.0377631817669	-920.1064727768352	3572.326448505503	-422.82718968795297	-749.9321574576428	3556.1205331101996	-378.847722860876	-593.1701931149611	3694.1630661293366	-624.8595841785535	-403.26853830436806	3559.4375977245845	-635.6933296404768	-576.6643151379035	3364.575747949168	-476.8974034329101	-675.3027789837421	3401.697246857283	-433.5357865999447	-696.4566798175742	3442.9543206305793	-473.0889082228881	-651.2106381290417	3343.914398859831	-416.57738406240145	-637.8381254021616	3866.4788214524	-362.60112748127625	-391.49771689717477	4004.7466668092425	-324.49542549587716	-129.76712209199283	3995.7501681740478	-244.72240468627928	4.637585517920405	3998.504000745573	-250.77457822060018	15.158039462115315	4007.421757192941	-234.694795478781	2.268109303948864	4007.7854013840215	-216.88875808662695
415	6.916666666666667	-83.48471304606204	3888.9727533330397	-588.8406992795279	271.8147910793157	4019.9379492447356	-545.4960241267854	624.638590500239	4148.971014595447	-523.7720132121863	695.7876230002246	4091.913260851789	-477.1651807074694	700.8830611347498	4118.574546868714	-561.8714510804346	655.8025182554969	4194.2491515030715	-531.7199231011052	-109.87652647735365	3910.547190276819	-348.5030158467907	234.1918906603693	4012.748733523964	-359.20466641266796	577.0773717088649	4194.275515933771	-382.81744578793206	680.4842688986628	4213.528491750603	-367.59506950145135	645.1449187157116	4252.200036199883	-341.5455576526122	599.258471456051	4230.770368578919	-408.38477226405183	-694.512603992537	3728.4863450892444	-476.17958887545217	-920.1376046299383	3572.1579072978107	-422.7535408109705	-746.0404377768037	3558.527522783064	-379.66960024618015	-593.1097226433089	3694.0700223712224	-624.7931858716985	-403.17692966310307	3559.3821445076287	-635.5889220360432	-580.9418042591444	3363.2785852637235	-476.43029755046996	-671.3564733582941	3378.746376404654	-426.8386734663847	-693.5013314623887	3419.7749133112293	-448.54475936733644	-651.0970031418248	3343.245814657718	-415.3820410026239	-637.8756180509835	3866.733157619678	-362.7564051814234	-391.51949714172144	4004.819345637508	-324.5826684679864	-129.75716735203153	3995.7171918395175	-244.6826832692846	-0.062313763841316754	3994.6062781431715	-249.0711397636146	13.801253983542809	3988.5178823483525	-222.66589450499475	2.2291104980689997	4007.7456326597317	-216.90540784687707
416	6.933333333333334	-83.02113214410504	3861.0865231206244	-581.7256159907244	267.9607681821144	3997.845582990452	-523.6960186882741	624.468363642228	4147.726467514924	-523.5448076872404	695.7666849912006	4091.747530057527	-477.05973850713457	695.8072565270535	4086.4530135795776	-554.3983526284051	655.6450498694004	4192.650594151039	-531.4127512857289	-109.92081486391504	3910.322768806485	-348.4265307339956	234.09058674210232	4012.3004033035345	-358.97934783095417	577.2693386219433	4194.41317990174	-382.90011780981996	680.4422770215191	4188.932684623796	-351.8330296282079	645.1923570005505	4251.8615969647035	-341.3754484802128	599.5536680633729	4230.584583003791	-408.3478476903818	-694.4094747467493	3728.3181512067	-476.077038795641	-920.1531774545424	3572.0203716494157	-422.7085414771111	-748.5743866590625	3574.6417290336044	-392.03094397718763	-591.2292283098594	3677.182801747316	-610.5344145988478	-402.1664928109978	3543.7396792865397	-622.0970658459814	-567.2759162183553	3368.43257408294	-477.59620611409036	-675.0846798722857	3401.760165613455	-433.23807723183955	-693.3116620509326	3419.79455369068	-448.521558366898	-650.9680044119938	3343.8447664801397	-416.05705175231924	-637.8736629051032	3866.504421205785	-362.5912294721187	-391.4949887394605	4004.689713817914	-324.5171309226132	-129.79187064819848	3995.9449756799777	-244.74624043788486	-0.2397321190765236	3994.990770383627	-249.10776308004594	13.419111379336677	3989.143376538552	-222.8352340770682	2.2788869511227525	4008.383065115315	-217.08946676622514
417	6.95	-78.48837941805276	3891.8678833809363	-588.5634332351394	271.85761933900926	4019.950025254634	-545.4670673319147	624.6136469333295	4147.904305208875	-523.6075078225585	695.8861574968519	4091.6562609755188	-476.9834927833083	701.0841604779198	4085.753857752057	-553.718392429618	655.7305581053278	4192.598113987904	-531.3032089034693	-109.90188933513363	3910.424596888471	-348.35502876596354	234.13087523964654	4012.466764815127	-359.0395476195766	576.8098919188163	4193.861968784469	-382.7810232872199	674.7390957888962	4185.851716473946	-352.53426879487887	644.1134434546406	4251.215276770767	-335.2619892354254	599.1832296481085	4230.134800115643	-408.2223449803439	-694.2744841920658	3728.0588623128106	-475.93342335385654	-923.828818961652	3569.4562183691155	-421.87504118090044	-745.8384261350733	3558.373351728677	-379.5279203391535	-591.2020209271266	3676.9390667531156	-610.478693242833	-402.0428307126761	3543.864385904037	-622.0196288633898	-560.7786544821055	3354.457147861665	-464.7411117443417	-664.2708198315222	3380.742954737334	-428.41910904066776	-677.0365055538227	3415.233991533232	-459.45536855037267	-645.8076565603046	3318.3088481226127	-410.0899752146539	-635.6680837175461	3847.7944515258937	-349.42172955364197	-391.55472078878165	4004.5679848734135	-324.5057450995402	-135.33421786315193	3993.7873235961933	-245.38414225799792	4.516923697501633	3998.814864857348	-250.76931666012453	15.105454517947862	4007.8036938798937	-234.793859066954	2.262920029302324	4007.9679012374972	-217.06363822340973
418	6.966666666666667	-78.51906678164056	3891.4274706421347	-588.5063598307007	268.7763844864292	3998.827629026045	-530.1993761865828	624.6270399796704	4148.162706633065	-523.712817198355	702.2645886770639	4095.724817803491	-478.9224422790839	700.9147892135776	4067.308443089213	-533.7000248133425	655.7691792599204	4193.11999820027	-531.5983083069809	-109.88876083737497	3910.1801838196116	-348.3006420429737	234.0232119667763	4012.3285570060903	-358.92065261503274	577.01874189923	4194.293411939909	-382.98102422860154	674.3278327040629	4185.419544630049	-352.37332846968576	643.4854698509783	4250.435267243802	-335.0628036847182	604.3632994777399	4252.5388325363865	-422.58092947133684	-689.4349593077877	3729.527964619452	-475.5489719542318	-923.8984543020277	3569.5693608155248	-421.89105472509635	-752.4506286030413	3572.097602024823	-391.2233467654149	-591.2526560748811	3677.1693256273516	-610.354934676036	-392.857924510164	3547.8163081687017	-623.4637705293788	-565.396038211529	3353.7357459337254	-464.7251836695599	-667.7278481461628	3381.8261910059196	-428.81903826408984	-674.9005539284725	3392.315731430327	-434.98550896217563	-650.9756342389777	3343.255867673941	-410.09618908106023	-637.9643985647244	3866.326581204096	-362.57827310859426	-391.47050819140054	4004.3364602687398	-324.34950792640876	-129.64015722049368	3995.761080382075	-244.6936539767621	0.12207594235282858	3994.3134864326025	-248.75506792288425	19.490949018653218	3989.9797379875895	-221.65316682435704	2.4216136342469263	4008.0813475556874	-217.00260700202986
